<svg width="172" height="94" viewBox="0 0 172 94" fill="none" xmlns="http://www.w3.org/2000/svg">
<path d="M19.3481 83.8018V9.67406C19.3481 4.33123 15.0169 0 9.67406 0C4.33122 0 0 4.33122 0 9.67406V83.8018C0 89.1446 4.33122 93.4759 9.67406 93.4759C15.0169 93.4759 19.3481 89.1446 19.3481 83.8018Z" fill="#313139"/>
<path d="M12.5082 79.7959H6.83994C3.06235 79.7959 0 82.8583 0 86.6359C0 90.4134 3.06234 93.4758 6.83994 93.4758H12.5082C16.2858 93.4758 19.3481 90.4134 19.3481 86.6359C19.3481 82.8583 16.2858 79.7959 12.5082 79.7959Z" fill="#313139"/>
<path d="M141.526 83.8018V9.67406C141.526 4.33123 137.194 0 131.852 0C126.509 0 122.178 4.33122 122.178 9.67406V83.8018C122.178 89.1446 126.509 93.4759 131.852 93.4759C137.194 93.4759 141.526 89.1446 141.526 83.8018Z" fill="#313139"/>
<path d="M172 83.8018V9.67406C172 4.33123 167.669 0 162.326 0C156.983 0 152.652 4.33122 152.652 9.67406V83.8018C152.652 89.1446 156.983 93.4759 162.326 93.4759C167.669 93.4759 172 89.1446 172 83.8018Z" fill="#313139"/>
<path d="M49.7722 83.8018V9.67406C49.7722 4.33123 45.441 0 40.0982 0C34.7553 0 30.4241 4.33122 30.4241 9.67406V83.8018C30.4241 89.1446 34.7553 93.4759 40.0982 93.4759C45.441 93.4759 49.7722 89.1446 49.7722 83.8018Z" fill="#313139"/>
<path d="M80.1966 83.8018V9.67406C80.1966 4.33123 75.8654 0 70.5225 0C65.1797 0 60.8485 4.33122 60.8485 9.67406V83.8018C60.8485 89.1446 65.1797 93.4759 70.5225 93.4759C75.8654 93.4759 80.1966 89.1446 80.1966 83.8018Z" fill="#313139"/>
<path d="M110.621 83.8018V9.67406C110.621 4.33123 106.29 0 100.947 0C95.604 0 91.2728 4.33122 91.2728 9.67406V83.8018C91.2728 89.1446 95.604 93.4759 100.947 93.4759C106.29 93.4759 110.621 89.1446 110.621 83.8018Z" fill="#313139"/>
<path d="M172 83.7919V28.822C172 23.4792 167.669 19.1479 162.326 19.1479C156.983 19.1479 152.652 23.4792 152.652 28.822V83.7919C152.652 89.1347 156.983 93.466 162.326 93.466C167.669 93.466 172 89.1347 172 83.7919Z" fill="url(#paint0_linear_408_1707)"/>
<path d="M141.205 83.6215V38.556C141.205 33.3017 136.946 29.0422 131.691 29.0422C126.437 29.0422 122.178 33.3017 122.178 38.556V83.6215C122.178 88.8759 126.437 93.1354 131.691 93.1354C136.946 93.1354 141.205 88.8759 141.205 83.6215Z" fill="url(#paint1_linear_408_1707)"/>
<path d="M110.16 83.6215V54.5793C110.16 49.325 105.901 45.0655 100.646 45.0655C95.3919 45.0655 91.1325 49.325 91.1325 54.5793V83.6215C91.1325 88.8759 95.3919 93.1354 100.646 93.1354C105.901 93.1354 110.16 88.8759 110.16 83.6215Z" fill="url(#paint2_linear_408_1707)"/>
<path d="M80.1164 83.6215V66.5968C80.1164 61.3425 75.857 57.083 70.6026 57.083C65.3483 57.083 61.0888 61.3425 61.0888 66.5968V83.6215C61.0888 88.8759 65.3483 93.1354 70.6026 93.1354C75.857 93.1354 80.1164 88.8759 80.1164 83.6215Z" fill="url(#paint3_linear_408_1707)"/>
<path d="M41.0597 75.1092H40.0582C35.0804 75.1092 31.0451 79.1445 31.0451 84.1223C31.0451 89.1001 35.0804 93.1354 40.0582 93.1354H41.0597C46.0375 93.1354 50.0728 89.1001 50.0728 84.1223C50.0728 79.1445 46.0375 75.1092 41.0597 75.1092Z" fill="url(#paint4_linear_408_1707)"/>
<defs>
<linearGradient id="paint0_linear_408_1707" x1="163.738" y1="3.00446" x2="193.397" y2="19.289" gradientUnits="userSpaceOnUse">
<stop stop-color="#FF9898"/>
<stop offset="1" stop-color="#8054FF"/>
</linearGradient>
<linearGradient id="paint1_linear_408_1707" x1="133.08" y1="15.1198" x2="160.351" y2="32.194" gradientUnits="userSpaceOnUse">
<stop stop-color="#FF9898"/>
<stop offset="1" stop-color="#8054FF"/>
</linearGradient>
<linearGradient id="paint2_linear_408_1707" x1="102.035" y1="34.6237" x2="124.406" y2="53.2988" gradientUnits="userSpaceOnUse">
<stop stop-color="#FF9898"/>
<stop offset="1" stop-color="#8054FF"/>
</linearGradient>
<linearGradient id="paint3_linear_408_1707" x1="71.9914" y1="49.2516" x2="88.946" y2="68.1235" gradientUnits="userSpaceOnUse">
<stop stop-color="#FF9898"/>
<stop offset="1" stop-color="#8054FF"/>
</linearGradient>
<linearGradient id="paint4_linear_408_1707" x1="41.9477" y1="71.1935" x2="48.3214" y2="85.3824" gradientUnits="userSpaceOnUse">
<stop stop-color="#FF9898"/>
<stop offset="1" stop-color="#8054FF"/>
</linearGradient>
</defs>
</svg>
