<svg width="1227" height="851" viewBox="0 0 1227 851" fill="none" xmlns="http://www.w3.org/2000/svg">
<path fill-rule="evenodd" clip-rule="evenodd" d="M0.999964 -4.56982e-08L1 851L0 851L-3.55811e-05 0L0.999964 -4.56982e-08Z" fill="url(#paint0_linear_408_1199)"/>
<path fill-rule="evenodd" clip-rule="evenodd" d="M112.471 -4.79649e-08L112.471 851L111.471 851L111.471 0L112.471 -4.79649e-08Z" fill="url(#paint1_linear_408_1199)"/>
<path fill-rule="evenodd" clip-rule="evenodd" d="M223.942 -4.79649e-08L223.942 851L222.942 851L222.942 0L223.942 -4.79649e-08Z" fill="url(#paint2_linear_408_1199)"/>
<path fill-rule="evenodd" clip-rule="evenodd" d="M335.413 -4.79649e-08L335.413 851L334.413 851L334.413 0L335.413 -4.79649e-08Z" fill="url(#paint3_linear_408_1199)"/>
<path fill-rule="evenodd" clip-rule="evenodd" d="M446.884 -4.79649e-08L446.884 851L445.884 851L445.884 0L446.884 -4.79649e-08Z" fill="url(#paint4_linear_408_1199)"/>
<path fill-rule="evenodd" clip-rule="evenodd" d="M558.355 -4.79649e-08L558.355 851L557.355 851L557.355 0L558.355 -4.79649e-08Z" fill="url(#paint5_linear_408_1199)"/>
<path fill-rule="evenodd" clip-rule="evenodd" d="M669.826 -4.79649e-08L669.826 851L668.826 851L668.826 0L669.826 -4.79649e-08Z" fill="url(#paint6_linear_408_1199)"/>
<path fill-rule="evenodd" clip-rule="evenodd" d="M781.297 -4.79649e-08L781.297 851L780.297 851L780.297 0L781.297 -4.79649e-08Z" fill="url(#paint7_linear_408_1199)"/>
<path fill-rule="evenodd" clip-rule="evenodd" d="M892.768 -4.79649e-08L892.768 851L891.768 851L891.768 0L892.768 -4.79649e-08Z" fill="url(#paint8_linear_408_1199)"/>
<path fill-rule="evenodd" clip-rule="evenodd" d="M1004.24 -4.79649e-08L1004.24 851L1003.24 851L1003.24 0L1004.24 -4.79649e-08Z" fill="url(#paint9_linear_408_1199)"/>
<path fill-rule="evenodd" clip-rule="evenodd" d="M1115.71 -4.79649e-08L1115.71 851L1114.71 851L1114.71 0L1115.71 -4.79649e-08Z" fill="url(#paint10_linear_408_1199)"/>
<path fill-rule="evenodd" clip-rule="evenodd" d="M1227 -4.35687e-08L1227 773L1226 773L1226 0L1227 -4.35687e-08Z" fill="url(#paint11_linear_408_1199)"/>
<defs>
<linearGradient id="paint0_linear_408_1199" x1="-1.77905e-05" y1="425.5" x2="0.654506" y2="425.5" gradientUnits="userSpaceOnUse">
<stop stop-color="#404047"/>
<stop offset="1" stop-color="#404047" stop-opacity="0"/>
</linearGradient>
<linearGradient id="paint1_linear_408_1199" x1="111.471" y1="425.5" x2="112.125" y2="425.5" gradientUnits="userSpaceOnUse">
<stop stop-color="#404047"/>
<stop offset="1" stop-color="#404047" stop-opacity="0"/>
</linearGradient>
<linearGradient id="paint2_linear_408_1199" x1="222.942" y1="425.5" x2="223.597" y2="425.5" gradientUnits="userSpaceOnUse">
<stop stop-color="#404047"/>
<stop offset="1" stop-color="#404047" stop-opacity="0"/>
</linearGradient>
<linearGradient id="paint3_linear_408_1199" x1="334.413" y1="425.5" x2="335.067" y2="425.5" gradientUnits="userSpaceOnUse">
<stop stop-color="#404047"/>
<stop offset="1" stop-color="#404047" stop-opacity="0"/>
</linearGradient>
<linearGradient id="paint4_linear_408_1199" x1="445.884" y1="425.5" x2="446.538" y2="425.5" gradientUnits="userSpaceOnUse">
<stop stop-color="#404047"/>
<stop offset="1" stop-color="#404047" stop-opacity="0"/>
</linearGradient>
<linearGradient id="paint5_linear_408_1199" x1="557.355" y1="425.5" x2="558.009" y2="425.5" gradientUnits="userSpaceOnUse">
<stop stop-color="#404047"/>
<stop offset="1" stop-color="#404047" stop-opacity="0"/>
</linearGradient>
<linearGradient id="paint6_linear_408_1199" x1="668.826" y1="425.5" x2="669.48" y2="425.5" gradientUnits="userSpaceOnUse">
<stop stop-color="#404047"/>
<stop offset="1" stop-color="#404047" stop-opacity="0"/>
</linearGradient>
<linearGradient id="paint7_linear_408_1199" x1="780.297" y1="425.5" x2="780.951" y2="425.5" gradientUnits="userSpaceOnUse">
<stop stop-color="#404047"/>
<stop offset="1" stop-color="#404047" stop-opacity="0"/>
</linearGradient>
<linearGradient id="paint8_linear_408_1199" x1="891.768" y1="425.5" x2="892.422" y2="425.5" gradientUnits="userSpaceOnUse">
<stop stop-color="#404047"/>
<stop offset="1" stop-color="#404047" stop-opacity="0"/>
</linearGradient>
<linearGradient id="paint9_linear_408_1199" x1="1003.24" y1="425.5" x2="1003.89" y2="425.5" gradientUnits="userSpaceOnUse">
<stop stop-color="#404047"/>
<stop offset="1" stop-color="#404047" stop-opacity="0"/>
</linearGradient>
<linearGradient id="paint10_linear_408_1199" x1="1114.71" y1="425.5" x2="1115.36" y2="425.5" gradientUnits="userSpaceOnUse">
<stop stop-color="#404047"/>
<stop offset="1" stop-color="#404047" stop-opacity="0"/>
</linearGradient>
<linearGradient id="paint11_linear_408_1199" x1="1226" y1="386.5" x2="1226.65" y2="386.5" gradientUnits="userSpaceOnUse">
<stop stop-color="#404047"/>
<stop offset="1" stop-color="#404047" stop-opacity="0"/>
</linearGradient>
</defs>
</svg>
