<svg width="132" height="34" viewBox="0 0 132 34" fill="none" xmlns="http://www.w3.org/2000/svg">
<path d="M64.9019 20.1314C64.9019 12.8905 54.3643 15.1864 54.3643 11.0656C54.3643 9.38779 55.5711 8.59306 57.19 8.65193C58.9561 8.68136 60.0452 9.74101 60.1335 11.095H64.6664C64.4015 7.38624 61.5169 5.23751 57.3077 5.23751C53.0692 5.23751 50.0668 7.47454 50.0668 11.1833C50.0374 18.6303 60.6339 15.9517 60.6339 20.3963C60.6339 21.8681 59.4859 22.8983 57.5432 22.8983C55.63 22.8983 54.5409 21.8092 54.4231 20.1609H50.008C50.0668 24.0462 53.3635 26.2833 57.6315 26.2833C62.3116 26.2833 64.9019 23.3692 64.9019 20.1314Z" fill="white"/>
<path d="M67.4149 17.8944C67.4149 22.8983 70.7998 26.3127 74.9207 26.3127C77.3932 26.3127 79.2476 25.1353 80.2484 23.8402V33.848H84.3986V9.77044H80.2484V11.8897C79.2476 10.624 77.4521 9.53497 75.009 9.53497C70.7998 9.53497 67.4149 12.8905 67.4149 17.8944ZM80.2484 17.9238C80.2484 21.0733 78.0702 22.7217 75.9215 22.7217C73.8022 22.7217 71.624 21.0439 71.624 17.8944C71.624 14.7449 73.8022 13.126 75.9215 13.126C78.0702 13.126 80.2484 14.7743 80.2484 17.9238Z" fill="white"/>
<path d="M103.818 9.77044H99.6674V18.748C99.6674 21.3677 98.2545 22.7806 96.0175 22.7806C93.8393 22.7806 92.3971 21.3677 92.3971 18.748V9.77044H88.2762V19.3367C88.2762 23.8108 91.0136 26.2833 94.8107 26.2833C96.8417 26.2833 98.6372 25.4002 99.6674 24.0168V26.0772H103.818V9.77044Z" fill="white"/>
<path d="M107.884 26.0772H112.004V9.77044H107.884V26.0772ZM109.973 7.82776C111.416 7.82776 112.505 6.76811 112.505 5.41412C112.505 4.06012 111.416 3.00048 109.973 3.00048C108.502 3.00048 107.442 4.06012 107.442 5.41412C107.442 6.76811 108.502 7.82776 109.973 7.82776Z" fill="white"/>
<path d="M115.016 17.865C115.016 22.9572 118.313 26.3421 122.463 26.3421C125.024 26.3421 126.849 25.1648 127.82 23.6636V26.0772H132V4.2956H127.82V12.0369C126.702 10.5063 124.641 9.50553 122.493 9.50553C118.313 9.50553 115.016 12.7728 115.016 17.865ZM127.85 17.9238C127.85 21.0145 125.789 22.7217 123.523 22.7217C121.315 22.7217 119.225 20.9556 119.225 17.865C119.225 14.7743 121.315 13.126 123.523 13.126C125.789 13.126 127.85 14.8332 127.85 17.9238Z" fill="white"/>
<path d="M38.6947 19.9446C35.7302 17.0693 30.9021 17.1462 27.9332 20.1137L25.7488 22.2971L23.6128 20.1621L27.6717 16.1051C31.1592 12.6191 31.1592 6.94547 27.6717 3.45955L26.83 2.61828C25.1379 0.929138 22.892 0 20.5033 0C18.1145 0 15.8664 0.929138 14.1787 2.61828L13.337 3.45955C9.84948 6.94547 9.84948 12.6191 13.337 16.1051L17.3959 20.1621L15.2599 22.2971L12.9876 20.0259C11.5042 18.5432 9.5572 17.803 7.60796 17.803C5.65872 17.803 3.71168 18.5432 2.22833 20.0259C0.791123 21.4646 0 23.3734 0 25.4052C0 27.437 0.791123 29.3458 2.22833 30.7823C3.66334 32.2167 5.57302 33.0052 7.60796 33.0052C9.6429 33.0052 11.5526 32.2167 12.9876 30.7823L15.2599 28.5111L17.5871 30.8417C18.365 31.6192 19.3979 32.0498 20.4989 32.0498C21.5998 32.0498 22.6349 31.6214 23.4128 30.8439L25.7488 28.5089L27.9332 30.6923C29.4012 32.1596 31.357 32.9679 33.4381 32.9679C35.5192 32.9679 37.2926 32.2189 38.6947 30.8614C40.1846 29.4161 41.0065 27.4766 41.0065 25.403C41.0065 23.3295 40.1846 21.3899 38.6947 19.9446ZM9.88024 27.6742C9.27371 28.2805 8.46721 28.6122 7.60796 28.6122C6.74872 28.6122 5.94221 28.2783 5.33568 27.6742C4.72916 27.0702 4.39513 26.2619 4.39513 25.403C4.39513 24.5442 4.72916 23.738 5.33568 23.1318C5.94221 22.5255 6.74872 22.1917 7.60796 22.1917C8.46721 22.1917 9.27371 22.5255 9.88024 23.1318L12.1525 25.403L9.88024 27.6742ZM20.5011 27.5424L19.7187 26.7605L18.365 25.4052L20.4791 23.2899L20.6549 23.4239L22.6349 25.403L20.4967 27.5403L20.5011 27.5424ZM21.991 15.5713L20.5055 17.0562L16.4466 12.9991C14.6731 11.2265 14.6731 8.34027 16.4466 6.56547L17.2882 5.72419C18.1475 4.86534 19.2902 4.39089 20.5055 4.39089C21.7207 4.39089 22.8634 4.86315 23.7227 5.72419L24.5644 6.56547C26.3378 8.33808 26.3378 11.2243 24.5644 12.9991L21.991 15.5713ZM35.6357 27.7094C35.0313 28.2959 34.2402 28.5858 33.4381 28.5858C32.5767 28.5858 31.7064 28.2519 31.0428 27.5886L28.8584 25.4052L31.0428 23.2219C32.3239 21.9413 34.3853 21.8864 35.6357 23.0988C36.2664 23.7095 36.6136 24.5288 36.6136 25.4052C36.6136 26.2816 36.2664 27.1009 35.6357 27.7116V27.7094Z" fill="white"/>
</svg>
